<?xml version="1.0" standalone="no"?>
<!DOCTYPE svg PUBLIC "-//W3C//DTD SVG 20010904//EN"
 "http://www.w3.org/TR/2001/REC-SVG-20010904/DTD/svg10.dtd">
<svg version="1.0" xmlns="http://www.w3.org/2000/svg"
 width="1920.000000pt" height="1920.000000pt" viewBox="0 0 1920.000000 1920.000000"
 preserveAspectRatio="xMidYMid meet">
<metadata>
Created by potrace 1.14, written by Peter Selinger 2001-2017
</metadata>
<g transform="translate(0.000000,1920.000000) scale(0.100000,-0.100000)"
fill="#000000" stroke="none">
<path d="M9583 19100 c-3 -11 -9 -20 -14 -20 -5 0 -9 -4 -9 -10 0 -5 -75 -139
-167 -297 -92 -159 -173 -299 -180 -313 -8 -14 -25 -43 -39 -65 -13 -22 -29
-49 -34 -60 -5 -11 -21 -38 -34 -60 -14 -22 -37 -62 -52 -90 -14 -27 -35 -62
-45 -77 -11 -14 -19 -28 -19 -31 0 -3 -34 -63 -75 -132 -41 -70 -75 -129 -75
-130 0 -4 -144 -251 -160 -275 -6 -8 -13 -22 -17 -30 -4 -8 -26 -48 -50 -88
-24 -40 -43 -75 -43 -79 0 -4 -6 -14 -14 -22 -7 -9 -28 -43 -46 -76 -30 -54
-160 -281 -246 -428 -19 -32 -34 -63 -34 -68 0 -5 -4 -9 -10 -9 -5 0 -10 -4
-10 -9 0 -5 -85 -157 -190 -337 -104 -180 -190 -331 -190 -335 0 -4 -6 -14
-12 -21 -7 -8 -18 -23 -24 -34 -6 -11 -55 -96 -109 -189 -54 -94 -108 -188
-120 -210 -13 -22 -68 -118 -124 -214 -56 -95 -101 -177 -101 -181 0 -5 -3
-10 -7 -12 -5 -2 -15 -16 -24 -33 -9 -16 -85 -149 -169 -295 -84 -146 -161
-280 -171 -297 -11 -18 -27 -48 -38 -65 -10 -18 -60 -105 -111 -193 -51 -88
-133 -228 -181 -312 -49 -84 -89 -156 -89 -161 0 -4 -5 -13 -12 -20 -7 -7 -26
-37 -43 -66 -16 -30 -66 -117 -110 -193 -44 -76 -85 -147 -91 -158 -6 -11 -77
-134 -158 -273 -80 -139 -146 -258 -146 -263 0 -5 -4 -9 -8 -9 -4 0 -15 -15
-23 -32 -9 -18 -47 -87 -86 -153 -74 -127 -437 -756 -470 -815 -23 -40 -120
-208 -133 -230 -12 -20 -79 -137 -103 -180 -11 -19 -22 -37 -26 -40 -3 -3 -14
-21 -23 -40 -27 -56 -62 -115 -70 -118 -5 -2 -8 -7 -8 -12 0 -7 -100 -182
-325 -569 -88 -153 -92 -160 -170 -296 -75 -131 -87 -151 -122 -210 -16 -27
-32 -57 -36 -65 -4 -8 -20 -36 -35 -61 -15 -25 -56 -96 -92 -157 -36 -62 -70
-120 -75 -130 -6 -9 -27 -47 -48 -84 l-39 -68 24 -42 c14 -24 34 -60 46 -80
12 -21 32 -55 43 -75 12 -21 57 -99 100 -173 44 -74 79 -139 78 -144 0 -5 3
-12 8 -15 8 -5 24 -30 73 -116 132 -230 160 -280 160 -286 0 -4 3 -9 8 -11 4
-1 32 -46 61 -98 75 -133 77 -135 186 -325 54 -93 109 -187 122 -207 12 -21
23 -39 23 -42 0 -2 17 -33 38 -67 22 -35 53 -89 69 -119 43 -77 311 -542 323
-560 6 -8 16 -26 22 -40 7 -14 15 -27 18 -30 3 -3 16 -25 29 -50 13 -25 29
-52 35 -60 7 -8 25 -40 40 -70 16 -30 34 -62 41 -70 7 -8 15 -22 18 -30 4 -8
20 -37 37 -65 16 -27 35 -61 42 -75 7 -14 24 -43 38 -65 15 -22 33 -55 41 -72
8 -18 17 -33 21 -33 5 0 8 -7 8 -15 0 -8 5 -15 11 -15 5 0 7 -4 4 -10 -3 -5
-1 -10 4 -10 6 0 11 -4 11 -9 0 -5 30 -60 66 -122 37 -63 84 -145 106 -184 21
-38 43 -77 48 -85 36 -58 90 -151 90 -155 0 -3 22 -40 48 -83 26 -42 53 -88
60 -102 6 -14 16 -32 22 -40 10 -16 94 -161 129 -223 12 -21 62 -108 111 -192
103 -177 122 -210 163 -285 16 -30 36 -62 43 -71 8 -8 14 -18 14 -22 0 -3 14
-30 32 -59 17 -29 47 -80 66 -113 44 -77 67 -116 94 -163 22 -39 57 -99 81
-142 8 -14 62 -108 122 -210 59 -102 117 -203 130 -225 31 -56 55 -97 115
-200 29 -49 64 -110 78 -135 14 -25 36 -62 49 -83 13 -21 28 -48 34 -60 5 -12
18 -35 28 -52 49 -79 161 -278 161 -286 0 -5 3 -9 8 -9 4 0 12 -10 18 -23 18
-38 66 -121 85 -149 11 -14 19 -29 19 -32 0 -4 69 -125 101 -176 5 -8 15 -26
21 -40 7 -14 15 -27 18 -30 3 -3 11 -16 19 -30 90 -157 121 -214 121 -220 0
-5 4 -10 8 -12 4 -1 34 -50 66 -108 33 -58 66 -113 74 -122 8 -10 11 -18 7
-18 -4 0 -1 -8 7 -17 13 -16 36 -54 125 -213 11 -19 34 -59 52 -88 17 -29 31
-56 31 -59 0 -4 6 -14 14 -22 8 -9 26 -38 41 -66 14 -27 34 -63 44 -80 29 -48
121 -208 121 -210 0 -1 24 -43 54 -92 59 -99 99 -168 130 -228 12 -22 24 -42
27 -45 4 -3 16 -23 28 -45 42 -77 79 -141 144 -253 37 -62 67 -116 67 -119 0
-4 6 -14 14 -22 7 -9 27 -41 43 -71 17 -30 63 -111 103 -180 40 -69 80 -138
90 -155 97 -169 120 -210 120 -218 0 -5 7 -4 15 3 8 7 15 19 15 26 0 8 4 14 9
14 5 0 11 8 14 18 3 9 19 40 35 67 16 28 80 138 142 245 128 222 161 278 175
302 5 9 17 29 26 45 9 15 26 46 39 68 13 22 30 51 37 65 8 14 26 46 41 71 35
60 123 212 142 247 15 27 159 275 198 342 12 19 27 46 35 60 35 63 72 127 133
232 37 62 80 138 97 168 17 30 33 57 36 60 4 3 15 24 26 47 11 24 23 43 28 43
4 0 7 4 7 9 0 8 47 90 196 346 13 22 26 48 30 57 3 10 10 18 15 18 5 0 9 6 9
13 0 11 78 148 97 172 5 6 15 25 22 43 7 17 17 32 22 32 5 0 9 6 9 13 0 7 11
29 25 50 14 20 22 37 18 37 -4 0 -3 4 2 8 13 9 85 130 85 143 0 5 5 9 10 9 6
0 10 5 10 10 0 6 33 68 74 138 175 300 521 901 549 952 16 30 40 71 52 90 13
19 76 127 140 240 125 219 122 214 210 365 32 55 66 113 74 130 9 16 19 32 22
35 4 3 18 28 33 55 14 28 30 57 35 65 18 30 74 126 94 160 54 96 293 510 313
542 13 21 24 40 24 42 0 2 26 48 58 103 32 54 61 105 65 113 4 8 16 29 26 45
18 28 254 438 304 528 14 23 39 67 57 97 26 44 204 352 280 485 10 17 57 98
105 180 49 83 98 168 109 190 12 22 29 51 37 65 25 39 204 348 240 415 17 33
40 72 51 87 10 14 18 30 18 34 0 4 6 15 14 23 7 9 27 41 43 71 17 30 47 84 68
120 21 36 45 79 55 95 9 17 43 75 75 130 32 55 72 125 88 155 17 30 34 57 39
58 4 2 8 8 8 13 0 13 92 173 102 177 4 2 8 12 8 23 0 10 4 19 8 19 5 0 19 21
32 48 13 26 26 49 29 52 3 3 15 22 26 42 11 20 44 78 73 129 28 50 52 96 52
100 0 5 5 9 10 9 23 0 8 29 -168 334 -29 49 -52 93 -52 97 0 5 -4 9 -10 9 -5
0 -10 4 -10 9 0 9 -47 94 -85 156 -7 11 -13 25 -15 30 -1 6 -10 21 -20 35 -10
14 -27 41 -38 60 -11 19 -36 64 -57 100 -21 36 -46 81 -57 100 -52 90 -189
327 -198 340 -5 8 -18 31 -28 50 -47 88 -147 255 -154 258 -4 2 -6 7 -3 12 3
4 -2 13 -10 20 -8 7 -15 16 -15 20 0 4 -36 69 -80 144 -44 76 -80 139 -80 142
0 3 -5 10 -10 17 -6 7 -34 53 -62 102 -28 50 -59 105 -69 123 -23 39 -52 91
-71 123 -7 13 -16 26 -19 29 -3 3 -8 10 -10 15 -10 27 -164 290 -171 293 -4 2
-8 8 -8 13 0 6 -24 51 -54 102 -30 51 -64 110 -77 132 -12 22 -45 80 -73 128
-28 49 -62 110 -76 135 -14 26 -27 49 -30 52 -3 3 -36 57 -72 120 -36 63 -76
131 -87 150 -11 19 -24 42 -28 50 -6 14 -73 128 -93 160 -5 8 -18 31 -29 50
-59 110 -86 155 -93 158 -4 2 -8 8 -8 13 0 5 -17 38 -39 73 -21 35 -44 77 -52
95 -8 17 -17 31 -21 31 -5 0 -8 5 -8 11 0 6 -13 30 -30 54 -16 24 -30 46 -30
50 0 3 -65 117 -144 253 -79 136 -151 263 -161 282 -10 18 -24 40 -31 48 -8 7
-17 24 -20 38 -3 13 -10 24 -15 24 -5 0 -9 4 -9 9 0 7 -23 48 -120 216 -122
210 -160 278 -160 286 0 5 -4 9 -10 9 -5 0 -10 4 -10 9 0 4 -23 48 -52 97 -78
136 -118 206 -140 244 -11 19 -35 60 -54 91 -19 31 -34 62 -34 68 0 6 -4 11
-9 11 -5 0 -14 15 -22 33 -7 17 -23 46 -36 63 -13 17 -23 34 -23 38 0 4 -22
44 -49 89 -86 146 -129 222 -129 231 0 5 -4 12 -9 15 -5 3 -44 69 -88 146 -43
77 -92 159 -107 183 -16 23 -25 42 -21 42 4 0 3 4 -3 8 -6 4 -26 35 -45 68
-19 34 -49 88 -68 120 -19 33 -42 73 -51 89 -9 17 -29 50 -44 75 -15 25 -29
53 -33 63 -3 9 -8 17 -12 17 -4 0 -13 16 -21 35 -8 19 -18 35 -24 35 -5 0 -7
3 -3 6 3 3 1 11 -4 18 -11 12 -342 584 -427 736 -14 25 -33 57 -43 72 -11 14
-19 28 -19 31 0 2 -36 67 -81 143 -78 135 -100 173 -161 279 -16 28 -33 57
-38 65 -38 62 -180 312 -180 317 0 4 -6 14 -14 22 -7 9 -27 41 -43 71 -17 30
-86 152 -155 270 -69 118 -133 230 -142 248 -19 36 -35 41 -43 12z m54 -2122
c70 -127 208 -363 215 -366 5 -2 8 -8 8 -13 0 -5 39 -77 88 -160 98 -169 127
-219 161 -281 13 -24 43 -74 66 -113 43 -72 78 -133 111 -195 11 -19 22 -37
26 -40 4 -3 12 -17 17 -30 6 -14 17 -34 23 -45 30 -45 69 -112 126 -215 14
-25 29 -48 34 -51 6 -3 10 -10 10 -15 0 -5 17 -38 38 -74 20 -36 49 -85 63
-110 14 -25 39 -67 55 -95 16 -27 40 -70 54 -95 14 -25 59 -101 98 -170 40
-69 81 -141 92 -160 11 -19 30 -51 41 -70 44 -71 58 -96 70 -122 6 -16 15 -28
19 -28 4 0 8 -4 8 -9 0 -9 179 -322 189 -331 3 -3 7 -11 9 -19 2 -8 11 -26 21
-40 10 -14 29 -46 43 -71 14 -25 76 -133 138 -240 62 -107 122 -211 132 -230
11 -19 87 -150 168 -290 289 -498 293 -506 378 -655 25 -44 64 -111 87 -150
23 -38 55 -95 72 -125 17 -30 95 -165 173 -300 79 -135 156 -270 173 -300 16
-30 38 -67 49 -82 10 -14 18 -28 18 -31 0 -3 21 -41 46 -84 40 -67 240 -414
296 -511 10 -18 59 -103 108 -187 49 -84 98 -169 108 -187 23 -40 115 -199
355 -613 99 -170 187 -325 196 -342 8 -18 19 -33 23 -33 4 0 8 -6 8 -14 0 -7
9 -25 20 -39 32 -41 34 -36 -65 -207 -21 -36 -46 -79 -56 -97 -10 -17 -29 -50
-43 -72 -15 -22 -26 -43 -26 -45 0 -3 -14 -29 -32 -58 -37 -62 -269 -463 -306
-528 -14 -25 -36 -62 -49 -82 -12 -21 -23 -40 -23 -44 0 -3 -8 -18 -18 -32
-11 -15 -33 -52 -49 -82 -17 -30 -88 -154 -158 -275 -124 -214 -167 -289 -189
-330 -33 -61 -102 -170 -108 -173 -5 -2 -6 -7 -3 -12 3 -5 -1 -14 -8 -22 -7
-7 -18 -24 -24 -38 -7 -14 -24 -43 -38 -65 -14 -22 -32 -53 -40 -70 -9 -16
-24 -43 -35 -60 -10 -16 -33 -57 -51 -90 -17 -33 -35 -62 -38 -65 -3 -3 -15
-23 -26 -45 -11 -22 -22 -42 -25 -45 -12 -11 -100 -170 -100 -180 0 -5 -4 -10
-10 -10 -5 0 -10 -5 -10 -10 0 -6 -27 -55 -60 -110 -33 -55 -60 -104 -60 -110
0 -5 -5 -10 -10 -10 -6 0 -9 -3 -8 -7 1 -5 -10 -27 -25 -50 -15 -24 -27 -47
-27 -52 0 -5 -3 -11 -7 -13 -5 -1 -16 -19 -26 -38 -9 -19 -26 -50 -37 -68 -18
-29 -214 -368 -268 -462 -20 -37 -128 -222 -407 -705 -92 -159 -195 -337 -228
-395 -33 -58 -68 -118 -77 -135 -10 -16 -39 -68 -66 -115 -26 -47 -51 -87 -54
-90 -3 -3 -15 -23 -26 -45 -12 -22 -72 -128 -134 -235 -62 -107 -121 -208
-130 -225 -52 -91 -94 -163 -108 -185 -9 -14 -17 -27 -17 -30 0 -3 -26 -48
-57 -100 -30 -52 -115 -198 -188 -325 -73 -126 -141 -243 -151 -260 -11 -16
-22 -38 -25 -47 -4 -10 -10 -18 -15 -18 -5 0 -8 -3 -7 -7 2 -5 -6 -24 -18 -43
-36 -62 -228 -392 -275 -475 -19 -33 -38 -68 -44 -77 -5 -9 -23 -41 -39 -70
-15 -29 -34 -60 -42 -69 -8 -8 -14 -19 -14 -22 0 -6 -30 -58 -77 -135 -14 -23
-16 -22 -64 62 -27 48 -49 90 -49 96 0 5 -8 14 -17 19 -10 6 -15 11 -10 11 4
0 -4 18 -18 40 -14 22 -25 44 -25 50 0 5 -4 10 -10 10 -5 0 -10 4 -10 10 0 5
-22 47 -49 92 -27 46 -58 100 -70 121 -39 69 -64 112 -82 142 -24 39 -87 152
-107 190 -8 17 -18 32 -21 35 -3 3 -12 16 -19 29 -8 13 -22 38 -32 55 -9 18
-95 167 -190 331 -95 164 -180 313 -190 329 -9 17 -35 60 -56 96 -49 83 -68
117 -91 160 -10 19 -20 37 -23 40 -5 5 -12 17 -58 99 -14 25 -54 94 -89 153
-34 59 -63 112 -63 117 0 6 -4 11 -10 11 -5 0 -10 4 -10 10 0 5 -14 33 -31 62
-18 29 -41 69 -52 88 -57 101 -362 629 -375 650 -9 14 -15 28 -14 33 1 4 -2 7
-7 7 -5 0 -12 9 -16 20 -3 10 -31 60 -61 110 -30 50 -54 93 -54 95 0 3 -20 37
-44 77 -52 86 -215 367 -252 435 -15 27 -30 53 -34 58 -4 6 -19 30 -32 55 -35
64 -60 107 -98 170 -35 59 -58 98 -98 170 -14 25 -33 59 -43 75 -23 39 -97
167 -130 225 -14 25 -51 88 -81 140 -249 427 -498 863 -498 871 0 5 -4 9 -10
9 -5 0 -10 4 -10 9 0 6 -17 38 -37 73 -21 35 -47 79 -58 98 -52 93 -233 406
-258 448 -15 26 -31 55 -34 65 -3 9 -9 17 -14 17 -5 0 -9 5 -9 10 0 6 -10 27
-23 48 -13 20 -37 62 -54 92 -16 30 -39 69 -49 87 -18 30 -108 184 -144 248
-10 17 -41 71 -70 120 -78 133 -118 203 -152 265 -11 19 -30 53 -44 75 -13 22
-32 55 -41 72 -19 37 -17 40 64 178 19 33 45 78 58 100 12 22 52 91 89 153 36
62 66 117 66 123 0 5 5 9 12 9 6 0 9 3 5 6 -3 4 5 21 18 39 14 17 25 35 25 38
0 3 39 72 86 154 48 81 97 166 109 188 21 39 106 184 125 215 50 81 300 523
300 531 0 5 3 9 8 9 4 0 12 10 18 23 20 40 60 109 201 352 77 132 152 261 166
288 15 26 67 117 117 201 49 85 93 162 97 172 3 11 9 21 13 24 3 3 95 160 205
350 109 190 205 353 213 363 8 9 12 17 9 17 -3 0 18 39 47 88 29 48 55 94 59
102 4 8 16 29 26 45 11 17 32 52 46 79 43 80 50 91 55 96 3 3 57 95 119 205
63 110 123 212 133 228 11 15 16 27 11 27 -4 0 -3 4 2 8 9 6 114 183 198 332
10 19 59 103 107 185 48 83 95 164 104 180 9 17 28 48 41 70 13 22 31 54 39
70 8 17 27 48 41 70 13 22 28 47 32 55 4 8 45 80 91 160 47 80 96 165 110 190
14 25 42 74 64 109 21 34 38 65 38 67 0 2 32 56 70 120 39 65 70 119 70 121 0
3 29 54 65 114 36 61 65 112 65 115 0 2 16 28 35 58 19 30 35 58 35 61 0 4 8
19 19 33 17 25 43 70 96 167 12 22 70 122 129 221 58 100 106 187 106 193 0 6
4 11 8 11 5 0 16 17 26 38 10 20 41 75 68 122 28 47 64 109 81 138 17 28 34
52 38 52 4 0 20 -24 36 -52z"/>
<path d="M9628 13425 c-1 -1 -48 -5 -103 -9 -55 -3 -111 -8 -125 -11 -14 -3
-45 -7 -70 -10 -25 -3 -56 -8 -70 -10 -14 -3 -41 -7 -61 -10 -124 -19 -548
-157 -592 -194 -7 -5 -48 -28 -92 -51 -70 -37 -201 -122 -215 -140 -3 -3 -21
-16 -40 -28 -19 -12 -70 -58 -114 -102 -43 -44 -81 -80 -85 -80 -3 -1 -42 -50
-86 -111 -86 -117 -175 -273 -205 -354 -10 -27 -30 -81 -45 -120 -28 -78 -73
-278 -82 -370 -13 -139 -7 -358 12 -435 2 -8 7 -40 10 -70 6 -53 10 -83 21
-145 13 -78 192 -448 234 -485 3 -3 44 -54 90 -115 82 -107 129 -158 202 -220
28 -24 150 -133 212 -190 6 -5 38 -28 70 -50 33 -22 64 -44 71 -50 6 -5 18
-14 27 -20 8 -5 51 -35 94 -65 92 -65 170 -115 314 -201 58 -35 107 -66 110
-69 3 -4 12 -10 20 -13 8 -4 33 -19 55 -32 22 -14 48 -28 58 -32 9 -3 17 -9
17 -14 0 -5 5 -9 10 -9 11 0 378 -218 472 -281 33 -21 62 -39 64 -39 9 0 129
-84 269 -188 188 -141 340 -295 415 -421 31 -53 59 -103 63 -111 4 -8 16 -30
27 -47 11 -18 22 -54 26 -80 3 -27 8 -51 10 -54 2 -4 6 -24 10 -45 6 -47 11
-71 19 -104 6 -25 7 -127 1 -165 -10 -68 -87 -259 -116 -285 -3 -3 -23 -27
-45 -55 -72 -91 -142 -152 -244 -213 -82 -49 -240 -115 -306 -128 -11 -2 -47
-8 -80 -14 -33 -6 -71 -13 -85 -17 -38 -9 -386 -8 -460 1 -194 24 -432 94
-620 183 -133 63 -333 185 -421 257 -14 11 -42 34 -62 49 -99 78 -289 262
-362 351 -78 95 -81 97 -110 84 -14 -6 -25 -15 -25 -19 0 -4 -9 -11 -20 -14
-20 -6 -20 -15 -20 -634 0 -585 1 -629 18 -643 19 -18 210 -148 216 -148 2 0
34 -18 70 -40 36 -22 70 -40 75 -40 5 0 11 -4 13 -8 5 -12 236 -123 338 -162
19 -7 40 -17 45 -21 6 -4 22 -10 35 -12 14 -3 39 -10 55 -17 57 -22 236 -74
330 -95 84 -19 114 -25 145 -30 19 -2 46 -7 60 -10 14 -2 44 -7 65 -9 22 -3
58 -7 80 -10 210 -25 647 -26 778 -1 15 3 39 7 55 10 15 3 36 7 47 9 70 12
150 28 168 36 12 5 69 23 127 41 58 18 107 36 108 41 2 4 8 8 14 8 50 0 407
206 468 270 3 3 29 25 59 49 30 25 73 65 95 89 23 25 55 60 73 78 18 18 59 71
92 116 33 46 64 88 68 94 30 39 141 260 154 306 7 23 16 48 20 53 10 15 56
164 63 205 3 19 12 67 20 106 14 65 29 240 29 324 -1 39 -10 142 -17 180 -5
28 -16 117 -21 170 -4 45 -16 138 -20 159 -8 40 -170 438 -185 456 -9 11 -32
44 -50 73 -18 28 -37 52 -40 52 -4 0 -13 14 -20 30 -7 17 -16 30 -20 30 -4 0
-15 16 -26 35 -10 19 -22 35 -26 35 -3 0 -9 9 -13 19 -10 32 -289 305 -390
383 -27 21 -54 42 -60 46 -5 4 -32 23 -60 42 -27 19 -54 38 -60 43 -26 22
-182 130 -200 138 -11 5 -40 23 -65 39 -25 16 -52 33 -60 37 -8 3 -39 21 -68
40 -29 18 -55 33 -59 33 -3 0 -20 10 -37 23 -17 12 -49 31 -71 42 -22 11 -42
22 -45 25 -3 3 -25 15 -50 28 -25 12 -67 36 -95 52 -27 16 -57 33 -65 37 -8 3
-64 34 -125 69 -151 85 -180 101 -220 124 -19 11 -51 29 -70 40 -19 11 -102
65 -185 120 -82 55 -152 100 -154 100 -2 0 -22 17 -44 38 -59 55 -203 186
-212 192 -13 8 -137 204 -143 225 -4 11 -9 34 -11 50 -7 42 -24 125 -31 155
-8 30 -8 136 0 168 3 12 7 30 9 40 13 56 21 79 43 125 62 127 173 247 301 324
98 59 259 124 320 130 13 1 38 6 55 12 122 38 528 46 619 12 13 -4 28 -6 34
-4 30 10 413 -97 469 -131 11 -7 33 -16 49 -20 15 -4 40 -14 54 -24 14 -9 30
-17 36 -18 32 -5 374 -215 418 -257 7 -7 38 -31 68 -53 30 -23 69 -54 85 -69
17 -15 44 -40 60 -55 35 -32 42 -29 89 34 l29 39 1 555 c1 304 -1 558 -4 562
-8 14 -160 104 -260 156 -52 27 -98 54 -102 59 -4 6 -8 7 -8 3 0 -4 -30 7 -67
24 -85 38 -298 118 -316 118 -7 0 -18 5 -25 12 -7 7 -12 9 -12 5 0 -3 -11 -2
-26 3 -29 11 -221 56 -280 66 -46 7 -69 12 -69 14 0 0 -20 3 -45 5 -25 2 -61
7 -80 10 -37 6 -446 16 -452 10z"/>
</g>
</svg>
